<mxfile host="Electron" agent="Mozilla/5.0 (Windows NT 10.0; Win64; x64) AppleWebKit/537.36 (KHTML, like Gecko) draw.io/24.7.17 Chrome/128.0.6613.36 Electron/32.0.1 Safari/537.36" version="24.7.17">
  <diagram id="Hzuaa3PWaj_wUONluNYw" name="Страница 1">
    <mxGraphModel dx="1510" dy="398" grid="1" gridSize="10" guides="1" tooltips="1" connect="1" arrows="1" fold="1" page="1" pageScale="1" pageWidth="827" pageHeight="1169" math="0" shadow="0">
      <root>
        <mxCell id="0" />
        <mxCell id="1" parent="0" />
        <mxCell id="B-wnxq_5yipWXsBSjvzT-1" value="Person" style="swimlane;fontStyle=1;align=center;verticalAlign=top;childLayout=stackLayout;horizontal=1;startSize=26;horizontalStack=0;resizeParent=1;resizeParentMax=0;resizeLast=0;collapsible=1;marginBottom=0;" parent="1" vertex="1">
          <mxGeometry x="80" y="120" width="160" height="104" as="geometry" />
        </mxCell>
        <mxCell id="B-wnxq_5yipWXsBSjvzT-2" value="Sleep()" style="text;strokeColor=none;fillColor=none;align=left;verticalAlign=top;spacingLeft=4;spacingRight=4;overflow=hidden;rotatable=0;points=[[0,0.5],[1,0.5]];portConstraint=eastwest;" parent="B-wnxq_5yipWXsBSjvzT-1" vertex="1">
          <mxGeometry y="26" width="160" height="26" as="geometry" />
        </mxCell>
        <mxCell id="B-wnxq_5yipWXsBSjvzT-5" value="WakeUp()" style="text;strokeColor=none;fillColor=none;align=left;verticalAlign=top;spacingLeft=4;spacingRight=4;overflow=hidden;rotatable=0;points=[[0,0.5],[1,0.5]];portConstraint=eastwest;" parent="B-wnxq_5yipWXsBSjvzT-1" vertex="1">
          <mxGeometry y="52" width="160" height="26" as="geometry" />
        </mxCell>
        <mxCell id="B-wnxq_5yipWXsBSjvzT-14" value="IsSleeping():bool" style="text;strokeColor=none;fillColor=none;align=left;verticalAlign=top;spacingLeft=4;spacingRight=4;overflow=hidden;rotatable=0;points=[[0,0.5],[1,0.5]];portConstraint=eastwest;" parent="B-wnxq_5yipWXsBSjvzT-1" vertex="1">
          <mxGeometry y="78" width="160" height="26" as="geometry" />
        </mxCell>
        <mxCell id="B-wnxq_5yipWXsBSjvzT-6" value="Lights" style="swimlane;fontStyle=1;align=center;verticalAlign=top;childLayout=stackLayout;horizontal=1;startSize=26;horizontalStack=0;resizeParent=1;resizeParentMax=0;resizeLast=0;collapsible=1;marginBottom=0;" parent="1" vertex="1">
          <mxGeometry x="320" y="120" width="160" height="78" as="geometry" />
        </mxCell>
        <mxCell id="B-wnxq_5yipWXsBSjvzT-7" value="TurnOn()" style="text;strokeColor=none;fillColor=none;align=left;verticalAlign=top;spacingLeft=4;spacingRight=4;overflow=hidden;rotatable=0;points=[[0,0.5],[1,0.5]];portConstraint=eastwest;" parent="B-wnxq_5yipWXsBSjvzT-6" vertex="1">
          <mxGeometry y="26" width="160" height="26" as="geometry" />
        </mxCell>
        <mxCell id="B-wnxq_5yipWXsBSjvzT-9" value="TurnOff()" style="text;strokeColor=none;fillColor=none;align=left;verticalAlign=top;spacingLeft=4;spacingRight=4;overflow=hidden;rotatable=0;points=[[0,0.5],[1,0.5]];portConstraint=eastwest;" parent="B-wnxq_5yipWXsBSjvzT-6" vertex="1">
          <mxGeometry y="52" width="160" height="26" as="geometry" />
        </mxCell>
        <mxCell id="B-wnxq_5yipWXsBSjvzT-10" value="MusicPlayer" style="swimlane;fontStyle=1;align=center;verticalAlign=top;childLayout=stackLayout;horizontal=1;startSize=26;horizontalStack=0;resizeParent=1;resizeParentMax=0;resizeLast=0;collapsible=1;marginBottom=0;" parent="1" vertex="1">
          <mxGeometry x="320" y="240" width="160" height="78" as="geometry" />
        </mxCell>
        <mxCell id="B-wnxq_5yipWXsBSjvzT-11" value="Play()" style="text;strokeColor=none;fillColor=none;align=left;verticalAlign=top;spacingLeft=4;spacingRight=4;overflow=hidden;rotatable=0;points=[[0,0.5],[1,0.5]];portConstraint=eastwest;" parent="B-wnxq_5yipWXsBSjvzT-10" vertex="1">
          <mxGeometry y="26" width="160" height="26" as="geometry" />
        </mxCell>
        <mxCell id="B-wnxq_5yipWXsBSjvzT-12" value="Stop()" style="text;strokeColor=none;fillColor=none;align=left;verticalAlign=top;spacingLeft=4;spacingRight=4;overflow=hidden;rotatable=0;points=[[0,0.5],[1,0.5]];portConstraint=eastwest;" parent="B-wnxq_5yipWXsBSjvzT-10" vertex="1">
          <mxGeometry y="52" width="160" height="26" as="geometry" />
        </mxCell>
        <mxCell id="B-wnxq_5yipWXsBSjvzT-35" style="edgeStyle=orthogonalEdgeStyle;rounded=0;orthogonalLoop=1;jettySize=auto;html=1;" parent="1" source="B-wnxq_5yipWXsBSjvzT-16" target="B-wnxq_5yipWXsBSjvzT-34" edge="1">
          <mxGeometry relative="1" as="geometry" />
        </mxCell>
        <mxCell id="B-wnxq_5yipWXsBSjvzT-16" value="SmartHouse" style="swimlane;fontStyle=1;align=center;verticalAlign=top;childLayout=stackLayout;horizontal=1;startSize=26;horizontalStack=0;resizeParent=1;resizeParentMax=0;resizeLast=0;collapsible=1;marginBottom=0;" parent="1" vertex="1">
          <mxGeometry x="930" y="1260" width="160" height="52" as="geometry" />
        </mxCell>
        <mxCell id="B-wnxq_5yipWXsBSjvzT-20" value="" style="endArrow=diamondThin;endFill=0;endSize=24;html=1;" parent="1" source="B-wnxq_5yipWXsBSjvzT-28" target="B-wnxq_5yipWXsBSjvzT-16" edge="1">
          <mxGeometry width="160" relative="1" as="geometry">
            <mxPoint x="890" y="1250" as="sourcePoint" />
            <mxPoint x="1050" y="1250" as="targetPoint" />
          </mxGeometry>
        </mxCell>
        <mxCell id="B-wnxq_5yipWXsBSjvzT-21" value="Person" style="swimlane;fontStyle=1;align=center;verticalAlign=top;childLayout=stackLayout;horizontal=1;startSize=26;horizontalStack=0;resizeParent=1;resizeParentMax=0;resizeLast=0;collapsible=1;marginBottom=0;" parent="1" vertex="1">
          <mxGeometry x="930" y="1090" width="160" height="104" as="geometry" />
        </mxCell>
        <mxCell id="B-wnxq_5yipWXsBSjvzT-22" value="Sleep()" style="text;strokeColor=none;fillColor=none;align=left;verticalAlign=top;spacingLeft=4;spacingRight=4;overflow=hidden;rotatable=0;points=[[0,0.5],[1,0.5]];portConstraint=eastwest;" parent="B-wnxq_5yipWXsBSjvzT-21" vertex="1">
          <mxGeometry y="26" width="160" height="26" as="geometry" />
        </mxCell>
        <mxCell id="B-wnxq_5yipWXsBSjvzT-23" value="WakeUp()" style="text;strokeColor=none;fillColor=none;align=left;verticalAlign=top;spacingLeft=4;spacingRight=4;overflow=hidden;rotatable=0;points=[[0,0.5],[1,0.5]];portConstraint=eastwest;" parent="B-wnxq_5yipWXsBSjvzT-21" vertex="1">
          <mxGeometry y="52" width="160" height="26" as="geometry" />
        </mxCell>
        <mxCell id="B-wnxq_5yipWXsBSjvzT-24" value="IsSleeping():bool" style="text;strokeColor=none;fillColor=none;align=left;verticalAlign=top;spacingLeft=4;spacingRight=4;overflow=hidden;rotatable=0;points=[[0,0.5],[1,0.5]];portConstraint=eastwest;" parent="B-wnxq_5yipWXsBSjvzT-21" vertex="1">
          <mxGeometry y="78" width="160" height="26" as="geometry" />
        </mxCell>
        <mxCell id="B-wnxq_5yipWXsBSjvzT-25" value="Lights" style="swimlane;fontStyle=1;align=center;verticalAlign=top;childLayout=stackLayout;horizontal=1;startSize=26;horizontalStack=0;resizeParent=1;resizeParentMax=0;resizeLast=0;collapsible=1;marginBottom=0;" parent="1" vertex="1">
          <mxGeometry x="1170" y="1090" width="160" height="78" as="geometry" />
        </mxCell>
        <mxCell id="B-wnxq_5yipWXsBSjvzT-26" value="TurnOn()" style="text;strokeColor=none;fillColor=none;align=left;verticalAlign=top;spacingLeft=4;spacingRight=4;overflow=hidden;rotatable=0;points=[[0,0.5],[1,0.5]];portConstraint=eastwest;" parent="B-wnxq_5yipWXsBSjvzT-25" vertex="1">
          <mxGeometry y="26" width="160" height="26" as="geometry" />
        </mxCell>
        <mxCell id="B-wnxq_5yipWXsBSjvzT-27" value="TurnOff()" style="text;strokeColor=none;fillColor=none;align=left;verticalAlign=top;spacingLeft=4;spacingRight=4;overflow=hidden;rotatable=0;points=[[0,0.5],[1,0.5]];portConstraint=eastwest;" parent="B-wnxq_5yipWXsBSjvzT-25" vertex="1">
          <mxGeometry y="52" width="160" height="26" as="geometry" />
        </mxCell>
        <mxCell id="B-wnxq_5yipWXsBSjvzT-28" value="MusicPlayer" style="swimlane;fontStyle=1;align=center;verticalAlign=top;childLayout=stackLayout;horizontal=1;startSize=26;horizontalStack=0;resizeParent=1;resizeParentMax=0;resizeLast=0;collapsible=1;marginBottom=0;" parent="1" vertex="1">
          <mxGeometry x="1170" y="1210" width="160" height="78" as="geometry" />
        </mxCell>
        <mxCell id="B-wnxq_5yipWXsBSjvzT-29" value="Play()" style="text;strokeColor=none;fillColor=none;align=left;verticalAlign=top;spacingLeft=4;spacingRight=4;overflow=hidden;rotatable=0;points=[[0,0.5],[1,0.5]];portConstraint=eastwest;" parent="B-wnxq_5yipWXsBSjvzT-28" vertex="1">
          <mxGeometry y="26" width="160" height="26" as="geometry" />
        </mxCell>
        <mxCell id="B-wnxq_5yipWXsBSjvzT-30" value="Stop()" style="text;strokeColor=none;fillColor=none;align=left;verticalAlign=top;spacingLeft=4;spacingRight=4;overflow=hidden;rotatable=0;points=[[0,0.5],[1,0.5]];portConstraint=eastwest;" parent="B-wnxq_5yipWXsBSjvzT-28" vertex="1">
          <mxGeometry y="52" width="160" height="26" as="geometry" />
        </mxCell>
        <mxCell id="B-wnxq_5yipWXsBSjvzT-31" value="" style="endArrow=diamondThin;endFill=0;endSize=24;html=1;" parent="1" source="B-wnxq_5yipWXsBSjvzT-25" target="B-wnxq_5yipWXsBSjvzT-16" edge="1">
          <mxGeometry width="160" relative="1" as="geometry">
            <mxPoint x="890" y="1250" as="sourcePoint" />
            <mxPoint x="1050" y="1250" as="targetPoint" />
          </mxGeometry>
        </mxCell>
        <mxCell id="B-wnxq_5yipWXsBSjvzT-32" value="" style="endArrow=diamondThin;endFill=0;endSize=24;html=1;" parent="1" source="B-wnxq_5yipWXsBSjvzT-21" target="B-wnxq_5yipWXsBSjvzT-16" edge="1">
          <mxGeometry width="160" relative="1" as="geometry">
            <mxPoint x="890" y="1250" as="sourcePoint" />
            <mxPoint x="1050" y="1250" as="targetPoint" />
          </mxGeometry>
        </mxCell>
        <mxCell id="B-wnxq_5yipWXsBSjvzT-34" value="&lt;div style=&quot;text-align: left&quot;&gt;&lt;span&gt;&lt;font face=&quot;Lucida Console&quot;&gt;if (m_person.IsSleeping())&lt;/font&gt;&lt;/span&gt;&lt;/div&gt;&lt;div style=&quot;text-align: left&quot;&gt;&lt;span&gt;&lt;font face=&quot;Lucida Console&quot;&gt;{&lt;/font&gt;&lt;/span&gt;&lt;/div&gt;&lt;div style=&quot;text-align: left&quot;&gt;&lt;div&gt;&lt;font face=&quot;Lucida Console&quot;&gt;&amp;nbsp; m_lights.TurnOff();&lt;/font&gt;&lt;/div&gt;&lt;div&gt;&lt;font face=&quot;Lucida Console&quot;&gt;&amp;nbsp; m_musicPlayer.Stop();&lt;/font&gt;&lt;/div&gt;&lt;div&gt;&lt;font face=&quot;Lucida Console&quot;&gt;&amp;nbsp;&amp;nbsp;&lt;span style=&quot;background-color: rgb(255 , 255 , 255)&quot;&gt;m_windows.Close();&lt;/span&gt;&lt;/font&gt;&lt;/div&gt;&lt;/div&gt;&lt;div style=&quot;text-align: left&quot;&gt;&lt;span&gt;&lt;font face=&quot;Lucida Console&quot;&gt;}&lt;/font&gt;&lt;/span&gt;&lt;/div&gt;&lt;div style=&quot;text-align: left&quot;&gt;&lt;span&gt;&lt;font face=&quot;Lucida Console&quot;&gt;else&lt;/font&gt;&lt;/span&gt;&lt;/div&gt;&lt;div style=&quot;text-align: left&quot;&gt;&lt;span&gt;&lt;font face=&quot;Lucida Console&quot;&gt;{&lt;/font&gt;&lt;/span&gt;&lt;/div&gt;&lt;div style=&quot;text-align: left&quot;&gt;&lt;div&gt;&lt;font face=&quot;Lucida Console&quot;&gt;&amp;nbsp; m_lights.TurnOn();&lt;/font&gt;&lt;/div&gt;&lt;div&gt;&lt;font face=&quot;Lucida Console&quot;&gt;&amp;nbsp; m_musicPlayer.Play();&lt;/font&gt;&lt;/div&gt;&lt;div&gt;&lt;font face=&quot;Lucida Console&quot;&gt;&amp;nbsp;&amp;nbsp;&lt;span style=&quot;background-color: rgb(255 , 255 , 255)&quot;&gt;m_windows.Open();&lt;/span&gt;&lt;/font&gt;&lt;/div&gt;&lt;/div&gt;&lt;div style=&quot;text-align: left&quot;&gt;&lt;span&gt;&lt;font face=&quot;Lucida Console&quot;&gt;}&lt;/font&gt;&lt;/span&gt;&lt;/div&gt;" style="shape=note;whiteSpace=wrap;html=1;backgroundOutline=1;darkOpacity=0.05;size=16;" parent="1" vertex="1">
          <mxGeometry x="640" y="1090" width="240" height="220" as="geometry" />
        </mxCell>
        <mxCell id="B-wnxq_5yipWXsBSjvzT-36" value="SmartHouse" style="swimlane;fontStyle=1;align=center;verticalAlign=top;childLayout=stackLayout;horizontal=1;startSize=26;horizontalStack=0;resizeParent=1;resizeParentMax=0;resizeLast=0;collapsible=1;marginBottom=0;" parent="1" vertex="1">
          <mxGeometry x="110" y="1070" width="160" height="52" as="geometry" />
        </mxCell>
        <mxCell id="B-wnxq_5yipWXsBSjvzT-52" value="+ TurnOnLightAndMusic" style="text;strokeColor=none;fillColor=none;align=left;verticalAlign=top;spacingLeft=4;spacingRight=4;overflow=hidden;rotatable=0;points=[[0,0.5],[1,0.5]];portConstraint=eastwest;" parent="B-wnxq_5yipWXsBSjvzT-36" vertex="1">
          <mxGeometry y="26" width="160" height="26" as="geometry" />
        </mxCell>
        <mxCell id="B-wnxq_5yipWXsBSjvzT-37" value="" style="endArrow=diamondThin;endFill=0;endSize=24;html=1;" parent="1" source="B-wnxq_5yipWXsBSjvzT-45" target="B-wnxq_5yipWXsBSjvzT-36" edge="1">
          <mxGeometry width="160" relative="1" as="geometry">
            <mxPoint x="70" y="1060" as="sourcePoint" />
            <mxPoint x="230" y="1060" as="targetPoint" />
          </mxGeometry>
        </mxCell>
        <mxCell id="B-wnxq_5yipWXsBSjvzT-38" value="Person" style="swimlane;fontStyle=1;align=center;verticalAlign=top;childLayout=stackLayout;horizontal=1;startSize=26;horizontalStack=0;resizeParent=1;resizeParentMax=0;resizeLast=0;collapsible=1;marginBottom=0;" parent="1" vertex="1">
          <mxGeometry x="110" y="900" width="160" height="104" as="geometry" />
        </mxCell>
        <mxCell id="B-wnxq_5yipWXsBSjvzT-39" value="Sleep()" style="text;strokeColor=none;fillColor=none;align=left;verticalAlign=top;spacingLeft=4;spacingRight=4;overflow=hidden;rotatable=0;points=[[0,0.5],[1,0.5]];portConstraint=eastwest;" parent="B-wnxq_5yipWXsBSjvzT-38" vertex="1">
          <mxGeometry y="26" width="160" height="26" as="geometry" />
        </mxCell>
        <mxCell id="B-wnxq_5yipWXsBSjvzT-40" value="WakeUp()" style="text;strokeColor=none;fillColor=none;align=left;verticalAlign=top;spacingLeft=4;spacingRight=4;overflow=hidden;rotatable=0;points=[[0,0.5],[1,0.5]];portConstraint=eastwest;" parent="B-wnxq_5yipWXsBSjvzT-38" vertex="1">
          <mxGeometry y="52" width="160" height="26" as="geometry" />
        </mxCell>
        <mxCell id="B-wnxq_5yipWXsBSjvzT-41" value="IsSleeping():bool" style="text;strokeColor=none;fillColor=none;align=left;verticalAlign=top;spacingLeft=4;spacingRight=4;overflow=hidden;rotatable=0;points=[[0,0.5],[1,0.5]];portConstraint=eastwest;" parent="B-wnxq_5yipWXsBSjvzT-38" vertex="1">
          <mxGeometry y="78" width="160" height="26" as="geometry" />
        </mxCell>
        <mxCell id="B-wnxq_5yipWXsBSjvzT-42" value="Lights" style="swimlane;fontStyle=1;align=center;verticalAlign=top;childLayout=stackLayout;horizontal=1;startSize=26;horizontalStack=0;resizeParent=1;resizeParentMax=0;resizeLast=0;collapsible=1;marginBottom=0;" parent="1" vertex="1">
          <mxGeometry x="350" y="900" width="160" height="78" as="geometry" />
        </mxCell>
        <mxCell id="B-wnxq_5yipWXsBSjvzT-43" value="TurnOn()" style="text;strokeColor=none;fillColor=none;align=left;verticalAlign=top;spacingLeft=4;spacingRight=4;overflow=hidden;rotatable=0;points=[[0,0.5],[1,0.5]];portConstraint=eastwest;" parent="B-wnxq_5yipWXsBSjvzT-42" vertex="1">
          <mxGeometry y="26" width="160" height="26" as="geometry" />
        </mxCell>
        <mxCell id="B-wnxq_5yipWXsBSjvzT-44" value="TurnOff()" style="text;strokeColor=none;fillColor=none;align=left;verticalAlign=top;spacingLeft=4;spacingRight=4;overflow=hidden;rotatable=0;points=[[0,0.5],[1,0.5]];portConstraint=eastwest;" parent="B-wnxq_5yipWXsBSjvzT-42" vertex="1">
          <mxGeometry y="52" width="160" height="26" as="geometry" />
        </mxCell>
        <mxCell id="B-wnxq_5yipWXsBSjvzT-45" value="MusicPlayer" style="swimlane;fontStyle=1;align=center;verticalAlign=top;childLayout=stackLayout;horizontal=1;startSize=26;horizontalStack=0;resizeParent=1;resizeParentMax=0;resizeLast=0;collapsible=1;marginBottom=0;" parent="1" vertex="1">
          <mxGeometry x="350" y="1020" width="160" height="78" as="geometry" />
        </mxCell>
        <mxCell id="B-wnxq_5yipWXsBSjvzT-46" value="Play()" style="text;strokeColor=none;fillColor=none;align=left;verticalAlign=top;spacingLeft=4;spacingRight=4;overflow=hidden;rotatable=0;points=[[0,0.5],[1,0.5]];portConstraint=eastwest;" parent="B-wnxq_5yipWXsBSjvzT-45" vertex="1">
          <mxGeometry y="26" width="160" height="26" as="geometry" />
        </mxCell>
        <mxCell id="B-wnxq_5yipWXsBSjvzT-47" value="Stop()" style="text;strokeColor=none;fillColor=none;align=left;verticalAlign=top;spacingLeft=4;spacingRight=4;overflow=hidden;rotatable=0;points=[[0,0.5],[1,0.5]];portConstraint=eastwest;" parent="B-wnxq_5yipWXsBSjvzT-45" vertex="1">
          <mxGeometry y="52" width="160" height="26" as="geometry" />
        </mxCell>
        <mxCell id="B-wnxq_5yipWXsBSjvzT-48" value="" style="endArrow=diamondThin;endFill=0;endSize=24;html=1;" parent="1" source="B-wnxq_5yipWXsBSjvzT-42" target="B-wnxq_5yipWXsBSjvzT-36" edge="1">
          <mxGeometry width="160" relative="1" as="geometry">
            <mxPoint x="70" y="1060" as="sourcePoint" />
            <mxPoint x="230" y="1060" as="targetPoint" />
          </mxGeometry>
        </mxCell>
        <mxCell id="B-wnxq_5yipWXsBSjvzT-49" value="" style="endArrow=diamondThin;endFill=0;endSize=24;html=1;" parent="1" source="B-wnxq_5yipWXsBSjvzT-38" target="B-wnxq_5yipWXsBSjvzT-36" edge="1">
          <mxGeometry width="160" relative="1" as="geometry">
            <mxPoint x="70" y="1060" as="sourcePoint" />
            <mxPoint x="230" y="1060" as="targetPoint" />
          </mxGeometry>
        </mxCell>
        <mxCell id="B-wnxq_5yipWXsBSjvzT-50" value="" style="endArrow=diamondThin;endFill=0;endSize=24;html=1;edgeStyle=orthogonalEdgeStyle;" parent="1" source="B-wnxq_5yipWXsBSjvzT-36" target="B-wnxq_5yipWXsBSjvzT-38" edge="1">
          <mxGeometry width="160" relative="1" as="geometry">
            <mxPoint x="190" y="1080" as="sourcePoint" />
            <mxPoint x="20" y="920" as="targetPoint" />
            <Array as="points">
              <mxPoint x="50" y="1100" />
              <mxPoint x="50" y="952" />
            </Array>
          </mxGeometry>
        </mxCell>
        <mxCell id="B-wnxq_5yipWXsBSjvzT-51" value="&lt;div style=&quot;text-align: left&quot;&gt;&lt;span&gt;&lt;font face=&quot;Lucida Console&quot;&gt;if (m_person.IsSleeping())&lt;/font&gt;&lt;/span&gt;&lt;/div&gt;&lt;div style=&quot;text-align: left&quot;&gt;&lt;span&gt;&lt;font face=&quot;Lucida Console&quot;&gt;{&lt;/font&gt;&lt;/span&gt;&lt;/div&gt;&lt;div style=&quot;text-align: left&quot;&gt;&lt;span&gt;&lt;font face=&quot;Lucida Console&quot;&gt;&amp;nbsp; &amp;nbsp; m_lights.TurnOff();&lt;/font&gt;&lt;/span&gt;&lt;/div&gt;&lt;div style=&quot;text-align: left&quot;&gt;&lt;span&gt;&lt;font face=&quot;Lucida Console&quot;&gt;&amp;nbsp; &amp;nbsp; m_musicPlayer.Stop();&lt;/font&gt;&lt;/span&gt;&lt;/div&gt;&lt;div style=&quot;text-align: left&quot;&gt;&lt;span&gt;&lt;font face=&quot;Lucida Console&quot;&gt;}&lt;/font&gt;&lt;/span&gt;&lt;/div&gt;&lt;div style=&quot;text-align: left&quot;&gt;&lt;span&gt;&lt;font face=&quot;Lucida Console&quot;&gt;else&lt;/font&gt;&lt;/span&gt;&lt;/div&gt;&lt;div style=&quot;text-align: left&quot;&gt;&lt;span&gt;&lt;font face=&quot;Lucida Console&quot;&gt;{&lt;/font&gt;&lt;/span&gt;&lt;/div&gt;&lt;div style=&quot;text-align: left&quot;&gt;&lt;span&gt;&lt;font face=&quot;Lucida Console&quot;&gt;&amp;nbsp; &amp;nbsp; m_lights.TurnOn();&lt;/font&gt;&lt;/span&gt;&lt;/div&gt;&lt;div style=&quot;text-align: left&quot;&gt;&lt;span&gt;&lt;font face=&quot;Lucida Console&quot;&gt;&amp;nbsp; &amp;nbsp; m_musicPlayer.Play();&lt;/font&gt;&lt;/span&gt;&lt;/div&gt;&lt;div style=&quot;text-align: left&quot;&gt;&lt;span&gt;&lt;font face=&quot;Lucida Console&quot;&gt;}&lt;/font&gt;&lt;/span&gt;&lt;/div&gt;" style="shape=note;whiteSpace=wrap;html=1;backgroundOutline=1;darkOpacity=0.05;size=16;" parent="1" vertex="1">
          <mxGeometry x="-200" y="844" width="240" height="190" as="geometry" />
        </mxCell>
        <mxCell id="B-wnxq_5yipWXsBSjvzT-66" style="edgeStyle=orthogonalEdgeStyle;rounded=0;orthogonalLoop=1;jettySize=auto;html=1;" parent="1" source="B-wnxq_5yipWXsBSjvzT-53" target="B-wnxq_5yipWXsBSjvzT-65" edge="1">
          <mxGeometry relative="1" as="geometry" />
        </mxCell>
        <mxCell id="B-wnxq_5yipWXsBSjvzT-53" value="Person" style="swimlane;fontStyle=1;align=center;verticalAlign=top;childLayout=stackLayout;horizontal=1;startSize=26;horizontalStack=0;resizeParent=1;resizeParentMax=0;resizeLast=0;collapsible=1;marginBottom=0;" parent="1" vertex="1">
          <mxGeometry x="880" y="318" width="160" height="104" as="geometry" />
        </mxCell>
        <mxCell id="B-wnxq_5yipWXsBSjvzT-54" value="Sleep()" style="text;strokeColor=none;fillColor=none;align=left;verticalAlign=top;spacingLeft=4;spacingRight=4;overflow=hidden;rotatable=0;points=[[0,0.5],[1,0.5]];portConstraint=eastwest;" parent="B-wnxq_5yipWXsBSjvzT-53" vertex="1">
          <mxGeometry y="26" width="160" height="26" as="geometry" />
        </mxCell>
        <mxCell id="B-wnxq_5yipWXsBSjvzT-55" value="WakeUp()" style="text;strokeColor=none;fillColor=none;align=left;verticalAlign=top;spacingLeft=4;spacingRight=4;overflow=hidden;rotatable=0;points=[[0,0.5],[1,0.5]];portConstraint=eastwest;" parent="B-wnxq_5yipWXsBSjvzT-53" vertex="1">
          <mxGeometry y="52" width="160" height="26" as="geometry" />
        </mxCell>
        <mxCell id="B-wnxq_5yipWXsBSjvzT-56" value="IsSleeping():bool" style="text;strokeColor=none;fillColor=none;align=left;verticalAlign=top;spacingLeft=4;spacingRight=4;overflow=hidden;rotatable=0;points=[[0,0.5],[1,0.5]];portConstraint=eastwest;" parent="B-wnxq_5yipWXsBSjvzT-53" vertex="1">
          <mxGeometry y="78" width="160" height="26" as="geometry" />
        </mxCell>
        <mxCell id="B-wnxq_5yipWXsBSjvzT-57" value="Lights" style="swimlane;fontStyle=1;align=center;verticalAlign=top;childLayout=stackLayout;horizontal=1;startSize=26;horizontalStack=0;resizeParent=1;resizeParentMax=0;resizeLast=0;collapsible=1;marginBottom=0;" parent="1" vertex="1">
          <mxGeometry x="1120" y="318" width="160" height="78" as="geometry" />
        </mxCell>
        <mxCell id="B-wnxq_5yipWXsBSjvzT-58" value="TurnOn()" style="text;strokeColor=none;fillColor=none;align=left;verticalAlign=top;spacingLeft=4;spacingRight=4;overflow=hidden;rotatable=0;points=[[0,0.5],[1,0.5]];portConstraint=eastwest;" parent="B-wnxq_5yipWXsBSjvzT-57" vertex="1">
          <mxGeometry y="26" width="160" height="26" as="geometry" />
        </mxCell>
        <mxCell id="B-wnxq_5yipWXsBSjvzT-59" value="TurnOff()" style="text;strokeColor=none;fillColor=none;align=left;verticalAlign=top;spacingLeft=4;spacingRight=4;overflow=hidden;rotatable=0;points=[[0,0.5],[1,0.5]];portConstraint=eastwest;" parent="B-wnxq_5yipWXsBSjvzT-57" vertex="1">
          <mxGeometry y="52" width="160" height="26" as="geometry" />
        </mxCell>
        <mxCell id="B-wnxq_5yipWXsBSjvzT-60" value="MusicPlayer" style="swimlane;fontStyle=1;align=center;verticalAlign=top;childLayout=stackLayout;horizontal=1;startSize=26;horizontalStack=0;resizeParent=1;resizeParentMax=0;resizeLast=0;collapsible=1;marginBottom=0;" parent="1" vertex="1">
          <mxGeometry x="1120" y="438" width="160" height="78" as="geometry" />
        </mxCell>
        <mxCell id="B-wnxq_5yipWXsBSjvzT-61" value="Play()" style="text;strokeColor=none;fillColor=none;align=left;verticalAlign=top;spacingLeft=4;spacingRight=4;overflow=hidden;rotatable=0;points=[[0,0.5],[1,0.5]];portConstraint=eastwest;" parent="B-wnxq_5yipWXsBSjvzT-60" vertex="1">
          <mxGeometry y="26" width="160" height="26" as="geometry" />
        </mxCell>
        <mxCell id="B-wnxq_5yipWXsBSjvzT-62" value="Stop()" style="text;strokeColor=none;fillColor=none;align=left;verticalAlign=top;spacingLeft=4;spacingRight=4;overflow=hidden;rotatable=0;points=[[0,0.5],[1,0.5]];portConstraint=eastwest;" parent="B-wnxq_5yipWXsBSjvzT-60" vertex="1">
          <mxGeometry y="52" width="160" height="26" as="geometry" />
        </mxCell>
        <mxCell id="B-wnxq_5yipWXsBSjvzT-63" value="" style="endArrow=diamondThin;endFill=0;endSize=24;html=1;" parent="1" source="B-wnxq_5yipWXsBSjvzT-57" target="B-wnxq_5yipWXsBSjvzT-53" edge="1">
          <mxGeometry width="160" relative="1" as="geometry">
            <mxPoint x="900" y="568" as="sourcePoint" />
            <mxPoint x="1060" y="568" as="targetPoint" />
          </mxGeometry>
        </mxCell>
        <mxCell id="B-wnxq_5yipWXsBSjvzT-64" value="" style="endArrow=diamondThin;endFill=0;endSize=24;html=1;" parent="1" source="B-wnxq_5yipWXsBSjvzT-60" target="B-wnxq_5yipWXsBSjvzT-53" edge="1">
          <mxGeometry width="160" relative="1" as="geometry">
            <mxPoint x="900" y="568" as="sourcePoint" />
            <mxPoint x="1060" y="568" as="targetPoint" />
          </mxGeometry>
        </mxCell>
        <mxCell id="B-wnxq_5yipWXsBSjvzT-65" value="&lt;div style=&quot;text-align: left&quot;&gt;&lt;font face=&quot;Lucida Console&quot;&gt;void Person::WakeUp()&lt;/font&gt;&lt;/div&gt;&lt;div style=&quot;text-align: left&quot;&gt;&lt;font face=&quot;Lucida Console&quot;&gt;{&lt;/font&gt;&lt;/div&gt;&lt;div style=&quot;text-align: left&quot;&gt;&lt;font face=&quot;Lucida Console&quot;&gt;&amp;nbsp; m_sleeping = false;&lt;/font&gt;&lt;/div&gt;&lt;div style=&quot;text-align: left&quot;&gt;&lt;font face=&quot;Lucida Console&quot;&gt;&amp;nbsp; m_lights.TurnOn();&lt;/font&gt;&lt;/div&gt;&lt;div style=&quot;text-align: left&quot;&gt;&lt;font face=&quot;Lucida Console&quot;&gt;&amp;nbsp; m_musicPlayer.Play();&lt;/font&gt;&lt;/div&gt;&lt;div style=&quot;text-align: left&quot;&gt;&lt;font face=&quot;Lucida Console&quot;&gt;}&lt;/font&gt;&lt;/div&gt;&lt;div style=&quot;text-align: left&quot;&gt;&lt;font face=&quot;Lucida Console&quot;&gt;&lt;br&gt;&lt;/font&gt;&lt;/div&gt;&lt;div style=&quot;text-align: left&quot;&gt;&lt;div&gt;&lt;font face=&quot;Lucida Console&quot;&gt;void Person::Sleep()&lt;/font&gt;&lt;/div&gt;&lt;div&gt;&lt;font face=&quot;Lucida Console&quot;&gt;{&lt;/font&gt;&lt;/div&gt;&lt;div&gt;&lt;font face=&quot;Lucida Console&quot;&gt;&amp;nbsp; m_sleeping = true;&lt;/font&gt;&lt;/div&gt;&lt;div&gt;&lt;font face=&quot;Lucida Console&quot;&gt;&amp;nbsp; m_lights.TurnOff();&lt;/font&gt;&lt;/div&gt;&lt;div&gt;&lt;font face=&quot;Lucida Console&quot;&gt;&amp;nbsp; m_musicPlayer.Stop();&lt;/font&gt;&lt;/div&gt;&lt;div&gt;&lt;font face=&quot;Lucida Console&quot;&gt;}&lt;/font&gt;&lt;/div&gt;&lt;/div&gt;" style="shape=note;whiteSpace=wrap;html=1;backgroundOutline=1;darkOpacity=0.05;size=16;" parent="1" vertex="1">
          <mxGeometry x="640" y="286" width="200" height="230" as="geometry" />
        </mxCell>
        <mxCell id="B-wnxq_5yipWXsBSjvzT-67" value="Windows" style="swimlane;fontStyle=1;align=center;verticalAlign=top;childLayout=stackLayout;horizontal=1;startSize=26;horizontalStack=0;resizeParent=1;resizeParentMax=0;resizeLast=0;collapsible=1;marginBottom=0;fillColor=#d5e8d4;strokeColor=#82b366;" parent="1" vertex="1">
          <mxGeometry x="890" y="880" width="160" height="78" as="geometry" />
        </mxCell>
        <mxCell id="B-wnxq_5yipWXsBSjvzT-68" value="Open()" style="text;strokeColor=none;fillColor=none;align=left;verticalAlign=top;spacingLeft=4;spacingRight=4;overflow=hidden;rotatable=0;points=[[0,0.5],[1,0.5]];portConstraint=eastwest;" parent="B-wnxq_5yipWXsBSjvzT-67" vertex="1">
          <mxGeometry y="26" width="160" height="26" as="geometry" />
        </mxCell>
        <mxCell id="B-wnxq_5yipWXsBSjvzT-69" value="Close()" style="text;strokeColor=none;fillColor=none;align=left;verticalAlign=top;spacingLeft=4;spacingRight=4;overflow=hidden;rotatable=0;points=[[0,0.5],[1,0.5]];portConstraint=eastwest;" parent="B-wnxq_5yipWXsBSjvzT-67" vertex="1">
          <mxGeometry y="52" width="160" height="26" as="geometry" />
        </mxCell>
        <mxCell id="B-wnxq_5yipWXsBSjvzT-70" style="edgeStyle=orthogonalEdgeStyle;rounded=0;orthogonalLoop=1;jettySize=auto;html=1;" parent="1" source="B-wnxq_5yipWXsBSjvzT-71" target="B-wnxq_5yipWXsBSjvzT-83" edge="1">
          <mxGeometry relative="1" as="geometry" />
        </mxCell>
        <mxCell id="B-wnxq_5yipWXsBSjvzT-71" value="Person" style="swimlane;fontStyle=1;align=center;verticalAlign=top;childLayout=stackLayout;horizontal=1;startSize=26;horizontalStack=0;resizeParent=1;resizeParentMax=0;resizeLast=0;collapsible=1;marginBottom=0;" parent="1" vertex="1">
          <mxGeometry x="890" y="682" width="160" height="104" as="geometry" />
        </mxCell>
        <mxCell id="B-wnxq_5yipWXsBSjvzT-72" value="Sleep()" style="text;strokeColor=none;fillColor=none;align=left;verticalAlign=top;spacingLeft=4;spacingRight=4;overflow=hidden;rotatable=0;points=[[0,0.5],[1,0.5]];portConstraint=eastwest;" parent="B-wnxq_5yipWXsBSjvzT-71" vertex="1">
          <mxGeometry y="26" width="160" height="26" as="geometry" />
        </mxCell>
        <mxCell id="B-wnxq_5yipWXsBSjvzT-73" value="WakeUp()" style="text;strokeColor=none;fillColor=none;align=left;verticalAlign=top;spacingLeft=4;spacingRight=4;overflow=hidden;rotatable=0;points=[[0,0.5],[1,0.5]];portConstraint=eastwest;" parent="B-wnxq_5yipWXsBSjvzT-71" vertex="1">
          <mxGeometry y="52" width="160" height="26" as="geometry" />
        </mxCell>
        <mxCell id="B-wnxq_5yipWXsBSjvzT-74" value="IsSleeping():bool" style="text;strokeColor=none;fillColor=none;align=left;verticalAlign=top;spacingLeft=4;spacingRight=4;overflow=hidden;rotatable=0;points=[[0,0.5],[1,0.5]];portConstraint=eastwest;" parent="B-wnxq_5yipWXsBSjvzT-71" vertex="1">
          <mxGeometry y="78" width="160" height="26" as="geometry" />
        </mxCell>
        <mxCell id="B-wnxq_5yipWXsBSjvzT-75" value="Lights" style="swimlane;fontStyle=1;align=center;verticalAlign=top;childLayout=stackLayout;horizontal=1;startSize=26;horizontalStack=0;resizeParent=1;resizeParentMax=0;resizeLast=0;collapsible=1;marginBottom=0;" parent="1" vertex="1">
          <mxGeometry x="1130" y="682" width="160" height="78" as="geometry" />
        </mxCell>
        <mxCell id="B-wnxq_5yipWXsBSjvzT-76" value="TurnOn()" style="text;strokeColor=none;fillColor=none;align=left;verticalAlign=top;spacingLeft=4;spacingRight=4;overflow=hidden;rotatable=0;points=[[0,0.5],[1,0.5]];portConstraint=eastwest;" parent="B-wnxq_5yipWXsBSjvzT-75" vertex="1">
          <mxGeometry y="26" width="160" height="26" as="geometry" />
        </mxCell>
        <mxCell id="B-wnxq_5yipWXsBSjvzT-77" value="TurnOff()" style="text;strokeColor=none;fillColor=none;align=left;verticalAlign=top;spacingLeft=4;spacingRight=4;overflow=hidden;rotatable=0;points=[[0,0.5],[1,0.5]];portConstraint=eastwest;" parent="B-wnxq_5yipWXsBSjvzT-75" vertex="1">
          <mxGeometry y="52" width="160" height="26" as="geometry" />
        </mxCell>
        <mxCell id="B-wnxq_5yipWXsBSjvzT-78" value="MusicPlayer" style="swimlane;fontStyle=1;align=center;verticalAlign=top;childLayout=stackLayout;horizontal=1;startSize=26;horizontalStack=0;resizeParent=1;resizeParentMax=0;resizeLast=0;collapsible=1;marginBottom=0;" parent="1" vertex="1">
          <mxGeometry x="1130" y="802" width="160" height="78" as="geometry" />
        </mxCell>
        <mxCell id="B-wnxq_5yipWXsBSjvzT-79" value="Play()" style="text;strokeColor=none;fillColor=none;align=left;verticalAlign=top;spacingLeft=4;spacingRight=4;overflow=hidden;rotatable=0;points=[[0,0.5],[1,0.5]];portConstraint=eastwest;" parent="B-wnxq_5yipWXsBSjvzT-78" vertex="1">
          <mxGeometry y="26" width="160" height="26" as="geometry" />
        </mxCell>
        <mxCell id="B-wnxq_5yipWXsBSjvzT-80" value="Stop()" style="text;strokeColor=none;fillColor=none;align=left;verticalAlign=top;spacingLeft=4;spacingRight=4;overflow=hidden;rotatable=0;points=[[0,0.5],[1,0.5]];portConstraint=eastwest;" parent="B-wnxq_5yipWXsBSjvzT-78" vertex="1">
          <mxGeometry y="52" width="160" height="26" as="geometry" />
        </mxCell>
        <mxCell id="B-wnxq_5yipWXsBSjvzT-81" value="" style="endArrow=diamondThin;endFill=0;endSize=24;html=1;" parent="1" source="B-wnxq_5yipWXsBSjvzT-75" target="B-wnxq_5yipWXsBSjvzT-71" edge="1">
          <mxGeometry width="160" relative="1" as="geometry">
            <mxPoint x="910" y="932" as="sourcePoint" />
            <mxPoint x="1070" y="932" as="targetPoint" />
          </mxGeometry>
        </mxCell>
        <mxCell id="B-wnxq_5yipWXsBSjvzT-82" value="" style="endArrow=diamondThin;endFill=0;endSize=24;html=1;" parent="1" source="B-wnxq_5yipWXsBSjvzT-78" target="B-wnxq_5yipWXsBSjvzT-71" edge="1">
          <mxGeometry width="160" relative="1" as="geometry">
            <mxPoint x="910" y="932" as="sourcePoint" />
            <mxPoint x="1070" y="932" as="targetPoint" />
          </mxGeometry>
        </mxCell>
        <mxCell id="B-wnxq_5yipWXsBSjvzT-83" value="&lt;div style=&quot;text-align: left&quot;&gt;&lt;font face=&quot;Lucida Console&quot;&gt;void Person::WakeUp()&lt;/font&gt;&lt;/div&gt;&lt;div style=&quot;text-align: left&quot;&gt;&lt;font face=&quot;Lucida Console&quot;&gt;{&lt;/font&gt;&lt;/div&gt;&lt;div style=&quot;text-align: left&quot;&gt;&lt;font face=&quot;Lucida Console&quot;&gt;&amp;nbsp; m_sleeping = false;&lt;/font&gt;&lt;/div&gt;&lt;div style=&quot;text-align: left&quot;&gt;&lt;font face=&quot;Lucida Console&quot;&gt;&amp;nbsp; m_lights.TurnOn();&lt;/font&gt;&lt;/div&gt;&lt;div style=&quot;text-align: left&quot;&gt;&lt;font face=&quot;Lucida Console&quot;&gt;&amp;nbsp; m_musicPlayer.Play();&lt;/font&gt;&lt;/div&gt;&lt;div style=&quot;text-align: left&quot;&gt;&lt;font face=&quot;Lucida Console&quot;&gt;&amp;nbsp; &lt;span style=&quot;background-color: rgb(151 , 208 , 119)&quot;&gt;m_windows.Open();&lt;/span&gt;&lt;/font&gt;&lt;/div&gt;&lt;div style=&quot;text-align: left&quot;&gt;&lt;font face=&quot;Lucida Console&quot;&gt;}&lt;/font&gt;&lt;/div&gt;&lt;div style=&quot;text-align: left&quot;&gt;&lt;font face=&quot;Lucida Console&quot;&gt;&lt;br&gt;&lt;/font&gt;&lt;/div&gt;&lt;div style=&quot;text-align: left&quot;&gt;&lt;div&gt;&lt;font face=&quot;Lucida Console&quot;&gt;void Person::Sleep()&lt;/font&gt;&lt;/div&gt;&lt;div&gt;&lt;font face=&quot;Lucida Console&quot;&gt;{&lt;/font&gt;&lt;/div&gt;&lt;div&gt;&lt;font face=&quot;Lucida Console&quot;&gt;&amp;nbsp; m_sleeping = true;&lt;/font&gt;&lt;/div&gt;&lt;div&gt;&lt;font face=&quot;Lucida Console&quot;&gt;&amp;nbsp; m_lights.TurnOff();&lt;/font&gt;&lt;/div&gt;&lt;div&gt;&lt;font face=&quot;Lucida Console&quot;&gt;&amp;nbsp; m_musicPlayer.Stop();&lt;/font&gt;&lt;/div&gt;&lt;div&gt;&lt;font face=&quot;Lucida Console&quot;&gt;&amp;nbsp; &lt;span style=&quot;background-color: rgb(151 , 208 , 119)&quot;&gt;m_windows.Close();&lt;/span&gt;&lt;/font&gt;&lt;/div&gt;&lt;div&gt;&lt;font face=&quot;Lucida Console&quot;&gt;}&lt;/font&gt;&lt;/div&gt;&lt;/div&gt;" style="shape=note;whiteSpace=wrap;html=1;backgroundOutline=1;darkOpacity=0.05;size=16;" parent="1" vertex="1">
          <mxGeometry x="650" y="650" width="200" height="250" as="geometry" />
        </mxCell>
        <mxCell id="B-wnxq_5yipWXsBSjvzT-84" value="" style="endArrow=diamondThin;endFill=0;endSize=24;html=1;" parent="1" source="B-wnxq_5yipWXsBSjvzT-67" target="B-wnxq_5yipWXsBSjvzT-71" edge="1">
          <mxGeometry width="160" relative="1" as="geometry">
            <mxPoint x="910" y="932" as="sourcePoint" />
            <mxPoint x="1070" y="932" as="targetPoint" />
          </mxGeometry>
        </mxCell>
        <mxCell id="B-wnxq_5yipWXsBSjvzT-85" value="Windows" style="swimlane;fontStyle=1;align=center;verticalAlign=top;childLayout=stackLayout;horizontal=1;startSize=26;horizontalStack=0;resizeParent=1;resizeParentMax=0;resizeLast=0;collapsible=1;marginBottom=0;" parent="1" vertex="1">
          <mxGeometry x="1090" y="1370" width="160" height="78" as="geometry" />
        </mxCell>
        <mxCell id="B-wnxq_5yipWXsBSjvzT-86" value="Open()" style="text;strokeColor=none;fillColor=none;align=left;verticalAlign=top;spacingLeft=4;spacingRight=4;overflow=hidden;rotatable=0;points=[[0,0.5],[1,0.5]];portConstraint=eastwest;" parent="B-wnxq_5yipWXsBSjvzT-85" vertex="1">
          <mxGeometry y="26" width="160" height="26" as="geometry" />
        </mxCell>
        <mxCell id="B-wnxq_5yipWXsBSjvzT-87" value="Close()" style="text;strokeColor=none;fillColor=none;align=left;verticalAlign=top;spacingLeft=4;spacingRight=4;overflow=hidden;rotatable=0;points=[[0,0.5],[1,0.5]];portConstraint=eastwest;" parent="B-wnxq_5yipWXsBSjvzT-85" vertex="1">
          <mxGeometry y="52" width="160" height="26" as="geometry" />
        </mxCell>
        <mxCell id="B-wnxq_5yipWXsBSjvzT-88" value="" style="endArrow=diamondThin;endFill=0;endSize=24;html=1;" parent="1" source="B-wnxq_5yipWXsBSjvzT-85" target="B-wnxq_5yipWXsBSjvzT-16" edge="1">
          <mxGeometry width="160" relative="1" as="geometry">
            <mxPoint x="890" y="1250" as="sourcePoint" />
            <mxPoint x="1050" y="1250" as="targetPoint" />
          </mxGeometry>
        </mxCell>
        <mxCell id="wFwmpMXxDF0CLSWa99Yn-1" style="edgeStyle=orthogonalEdgeStyle;rounded=0;orthogonalLoop=1;jettySize=auto;html=1;" parent="1" source="wFwmpMXxDF0CLSWa99Yn-2" target="wFwmpMXxDF0CLSWa99Yn-16" edge="1">
          <mxGeometry relative="1" as="geometry" />
        </mxCell>
        <mxCell id="wFwmpMXxDF0CLSWa99Yn-2" value="SmartHouse" style="swimlane;fontStyle=1;align=center;verticalAlign=top;childLayout=stackLayout;horizontal=1;startSize=26;horizontalStack=0;resizeParent=1;resizeParentMax=0;resizeLast=0;collapsible=1;marginBottom=0;" parent="1" vertex="1">
          <mxGeometry x="820" y="1830" width="160" height="78" as="geometry" />
        </mxCell>
        <mxCell id="BoS02DbmtjST0QqdQiZQ-9" value="OnWakeUp(person:Person&amp;amp;)" style="text;strokeColor=#82b366;fillColor=#d5e8d4;align=left;verticalAlign=top;spacingLeft=4;spacingRight=4;overflow=hidden;rotatable=0;points=[[0,0.5],[1,0.5]];portConstraint=eastwest;whiteSpace=wrap;html=1;" parent="wFwmpMXxDF0CLSWa99Yn-2" vertex="1">
          <mxGeometry y="26" width="160" height="26" as="geometry" />
        </mxCell>
        <mxCell id="BoS02DbmtjST0QqdQiZQ-10" value="OnSleep(person:Person&amp;amp;)" style="text;strokeColor=#82b366;fillColor=#d5e8d4;align=left;verticalAlign=top;spacingLeft=4;spacingRight=4;overflow=hidden;rotatable=0;points=[[0,0.5],[1,0.5]];portConstraint=eastwest;whiteSpace=wrap;html=1;" parent="wFwmpMXxDF0CLSWa99Yn-2" vertex="1">
          <mxGeometry y="52" width="160" height="26" as="geometry" />
        </mxCell>
        <mxCell id="wFwmpMXxDF0CLSWa99Yn-3" value="" style="endArrow=diamondThin;endFill=0;endSize=24;html=1;" parent="1" source="wFwmpMXxDF0CLSWa99Yn-11" target="wFwmpMXxDF0CLSWa99Yn-2" edge="1">
          <mxGeometry width="160" relative="1" as="geometry">
            <mxPoint x="890" y="1820" as="sourcePoint" />
            <mxPoint x="1050" y="1820" as="targetPoint" />
          </mxGeometry>
        </mxCell>
        <mxCell id="BoS02DbmtjST0QqdQiZQ-14" style="edgeStyle=orthogonalEdgeStyle;rounded=0;orthogonalLoop=1;jettySize=auto;html=1;" parent="1" source="wFwmpMXxDF0CLSWa99Yn-4" target="BoS02DbmtjST0QqdQiZQ-13" edge="1">
          <mxGeometry relative="1" as="geometry" />
        </mxCell>
        <mxCell id="wFwmpMXxDF0CLSWa99Yn-4" value="Person" style="swimlane;fontStyle=1;align=center;verticalAlign=top;childLayout=stackLayout;horizontal=1;startSize=26;horizontalStack=0;resizeParent=1;resizeParentMax=0;resizeLast=0;collapsible=1;marginBottom=0;" parent="1" vertex="1">
          <mxGeometry x="790" y="1590" width="280" height="190" as="geometry" />
        </mxCell>
        <mxCell id="wFwmpMXxDF0CLSWa99Yn-5" value="Sleep()" style="text;strokeColor=none;fillColor=none;align=left;verticalAlign=top;spacingLeft=4;spacingRight=4;overflow=hidden;rotatable=0;points=[[0,0.5],[1,0.5]];portConstraint=eastwest;" parent="wFwmpMXxDF0CLSWa99Yn-4" vertex="1">
          <mxGeometry y="26" width="280" height="26" as="geometry" />
        </mxCell>
        <mxCell id="wFwmpMXxDF0CLSWa99Yn-6" value="WakeUp()" style="text;strokeColor=none;fillColor=none;align=left;verticalAlign=top;spacingLeft=4;spacingRight=4;overflow=hidden;rotatable=0;points=[[0,0.5],[1,0.5]];portConstraint=eastwest;" parent="wFwmpMXxDF0CLSWa99Yn-4" vertex="1">
          <mxGeometry y="52" width="280" height="26" as="geometry" />
        </mxCell>
        <mxCell id="wFwmpMXxDF0CLSWa99Yn-7" value="IsSleeping():bool" style="text;strokeColor=none;fillColor=none;align=left;verticalAlign=top;spacingLeft=4;spacingRight=4;overflow=hidden;rotatable=0;points=[[0,0.5],[1,0.5]];portConstraint=eastwest;" parent="wFwmpMXxDF0CLSWa99Yn-4" vertex="1">
          <mxGeometry y="78" width="280" height="26" as="geometry" />
        </mxCell>
        <mxCell id="BoS02DbmtjST0QqdQiZQ-5" value="AddObserver(o:IPersonObserver&amp;amp;)" style="text;strokeColor=#82b366;fillColor=#d5e8d4;align=left;verticalAlign=top;spacingLeft=4;spacingRight=4;overflow=hidden;rotatable=0;points=[[0,0.5],[1,0.5]];portConstraint=eastwest;whiteSpace=wrap;html=1;" parent="wFwmpMXxDF0CLSWa99Yn-4" vertex="1">
          <mxGeometry y="104" width="280" height="26" as="geometry" />
        </mxCell>
        <mxCell id="BoS02DbmtjST0QqdQiZQ-6" value="RemoveObserver(o:IPersonObserver)&amp;amp;" style="text;strokeColor=#82b366;fillColor=#d5e8d4;align=left;verticalAlign=top;spacingLeft=4;spacingRight=4;overflow=hidden;rotatable=0;points=[[0,0.5],[1,0.5]];portConstraint=eastwest;whiteSpace=wrap;html=1;" parent="wFwmpMXxDF0CLSWa99Yn-4" vertex="1">
          <mxGeometry y="130" width="280" height="26" as="geometry" />
        </mxCell>
        <mxCell id="BoS02DbmtjST0QqdQiZQ-11" value="" style="line;strokeWidth=1;fillColor=none;align=left;verticalAlign=middle;spacingTop=-1;spacingLeft=3;spacingRight=3;rotatable=0;labelPosition=right;points=[];portConstraint=eastwest;strokeColor=inherit;" parent="wFwmpMXxDF0CLSWa99Yn-4" vertex="1">
          <mxGeometry y="156" width="280" height="8" as="geometry" />
        </mxCell>
        <mxCell id="BoS02DbmtjST0QqdQiZQ-7" value="- m_observers:unordered_set&amp;lt;IPersonObserver*&amp;gt;" style="text;strokeColor=#82b366;fillColor=#d5e8d4;align=left;verticalAlign=top;spacingLeft=4;spacingRight=4;overflow=hidden;rotatable=0;points=[[0,0.5],[1,0.5]];portConstraint=eastwest;whiteSpace=wrap;html=1;" parent="wFwmpMXxDF0CLSWa99Yn-4" vertex="1">
          <mxGeometry y="164" width="280" height="26" as="geometry" />
        </mxCell>
        <mxCell id="wFwmpMXxDF0CLSWa99Yn-8" value="Lights" style="swimlane;fontStyle=1;align=center;verticalAlign=top;childLayout=stackLayout;horizontal=1;startSize=26;horizontalStack=0;resizeParent=1;resizeParentMax=0;resizeLast=0;collapsible=1;marginBottom=0;" parent="1" vertex="1">
          <mxGeometry x="990" y="1980" width="80" height="78" as="geometry" />
        </mxCell>
        <mxCell id="wFwmpMXxDF0CLSWa99Yn-9" value="TurnOn()" style="text;strokeColor=none;fillColor=none;align=left;verticalAlign=top;spacingLeft=4;spacingRight=4;overflow=hidden;rotatable=0;points=[[0,0.5],[1,0.5]];portConstraint=eastwest;" parent="wFwmpMXxDF0CLSWa99Yn-8" vertex="1">
          <mxGeometry y="26" width="80" height="26" as="geometry" />
        </mxCell>
        <mxCell id="wFwmpMXxDF0CLSWa99Yn-10" value="TurnOff()" style="text;strokeColor=none;fillColor=none;align=left;verticalAlign=top;spacingLeft=4;spacingRight=4;overflow=hidden;rotatable=0;points=[[0,0.5],[1,0.5]];portConstraint=eastwest;" parent="wFwmpMXxDF0CLSWa99Yn-8" vertex="1">
          <mxGeometry y="52" width="80" height="26" as="geometry" />
        </mxCell>
        <mxCell id="wFwmpMXxDF0CLSWa99Yn-11" value="MusicPlayer" style="swimlane;fontStyle=1;align=center;verticalAlign=top;childLayout=stackLayout;horizontal=1;startSize=26;horizontalStack=0;resizeParent=1;resizeParentMax=0;resizeLast=0;collapsible=1;marginBottom=0;" parent="1" vertex="1">
          <mxGeometry x="870" y="1980" width="100" height="78" as="geometry" />
        </mxCell>
        <mxCell id="wFwmpMXxDF0CLSWa99Yn-12" value="Play()" style="text;strokeColor=none;fillColor=none;align=left;verticalAlign=top;spacingLeft=4;spacingRight=4;overflow=hidden;rotatable=0;points=[[0,0.5],[1,0.5]];portConstraint=eastwest;" parent="wFwmpMXxDF0CLSWa99Yn-11" vertex="1">
          <mxGeometry y="26" width="100" height="26" as="geometry" />
        </mxCell>
        <mxCell id="wFwmpMXxDF0CLSWa99Yn-13" value="Stop()" style="text;strokeColor=none;fillColor=none;align=left;verticalAlign=top;spacingLeft=4;spacingRight=4;overflow=hidden;rotatable=0;points=[[0,0.5],[1,0.5]];portConstraint=eastwest;" parent="wFwmpMXxDF0CLSWa99Yn-11" vertex="1">
          <mxGeometry y="52" width="100" height="26" as="geometry" />
        </mxCell>
        <mxCell id="wFwmpMXxDF0CLSWa99Yn-14" value="" style="endArrow=diamondThin;endFill=0;endSize=24;html=1;" parent="1" source="wFwmpMXxDF0CLSWa99Yn-8" target="wFwmpMXxDF0CLSWa99Yn-2" edge="1">
          <mxGeometry width="160" relative="1" as="geometry">
            <mxPoint x="890" y="1820" as="sourcePoint" />
            <mxPoint x="1050" y="1820" as="targetPoint" />
          </mxGeometry>
        </mxCell>
        <mxCell id="wFwmpMXxDF0CLSWa99Yn-15" value="" style="endArrow=diamondThin;endFill=0;endSize=24;html=1;" parent="1" source="wFwmpMXxDF0CLSWa99Yn-4" target="wFwmpMXxDF0CLSWa99Yn-2" edge="1">
          <mxGeometry width="160" relative="1" as="geometry">
            <mxPoint x="890" y="1820" as="sourcePoint" />
            <mxPoint x="1050" y="1820" as="targetPoint" />
          </mxGeometry>
        </mxCell>
        <mxCell id="wFwmpMXxDF0CLSWa99Yn-16" value="&lt;div style=&quot;text-align: left&quot;&gt;&lt;span&gt;&lt;font face=&quot;Lucida Console&quot;&gt;void OnSleep(Person&amp;amp; p)&amp;nbsp;&lt;/font&gt;&lt;/span&gt;&lt;span style=&quot;font-family: &amp;quot;Lucida Console&amp;quot;;&quot;&gt;{&lt;/span&gt;&lt;/div&gt;&lt;div style=&quot;text-align: left&quot;&gt;&lt;div&gt;&lt;font face=&quot;Lucida Console&quot;&gt;&amp;nbsp; m_lights.TurnOff();&lt;/font&gt;&lt;/div&gt;&lt;div&gt;&lt;font face=&quot;Lucida Console&quot;&gt;&amp;nbsp; m_musicPlayer.Stop();&lt;/font&gt;&lt;/div&gt;&lt;div&gt;&lt;font face=&quot;Lucida Console&quot;&gt;&amp;nbsp;&amp;nbsp;m_windows.Close();&lt;/font&gt;&lt;/div&gt;&lt;/div&gt;&lt;div style=&quot;text-align: left&quot;&gt;&lt;span&gt;&lt;font face=&quot;Lucida Console&quot;&gt;}&lt;/font&gt;&lt;/span&gt;&lt;/div&gt;&lt;div style=&quot;text-align: left&quot;&gt;&lt;br&gt;&lt;/div&gt;&lt;div style=&quot;text-align: left&quot;&gt;&lt;font face=&quot;Lucida Console&quot;&gt;void OnWakeUp(Person&amp;amp; p)&amp;nbsp;&lt;/font&gt;&lt;span style=&quot;font-family: &amp;quot;Lucida Console&amp;quot;;&quot;&gt;{&lt;/span&gt;&lt;/div&gt;&lt;div style=&quot;text-align: left&quot;&gt;&lt;div&gt;&lt;font face=&quot;Lucida Console&quot;&gt;&amp;nbsp; m_lights.TurnOn();&lt;/font&gt;&lt;/div&gt;&lt;div&gt;&lt;font face=&quot;Lucida Console&quot;&gt;&amp;nbsp; m_musicPlayer.Play();&lt;/font&gt;&lt;/div&gt;&lt;div&gt;&lt;font face=&quot;Lucida Console&quot;&gt;&amp;nbsp;&amp;nbsp;m_windows.Open();&lt;/font&gt;&lt;/div&gt;&lt;/div&gt;&lt;div style=&quot;text-align: left&quot;&gt;&lt;span&gt;&lt;font face=&quot;Lucida Console&quot;&gt;}&lt;/font&gt;&lt;/span&gt;&lt;/div&gt;" style="shape=note;whiteSpace=wrap;html=1;backgroundOutline=1;darkOpacity=0.05;size=16;fillColor=#fff2cc;gradientColor=#ffd966;strokeColor=#d6b656;" parent="1" vertex="1">
          <mxGeometry x="510" y="1779" width="210" height="200" as="geometry" />
        </mxCell>
        <mxCell id="wFwmpMXxDF0CLSWa99Yn-17" value="Windows" style="swimlane;fontStyle=1;align=center;verticalAlign=top;childLayout=stackLayout;horizontal=1;startSize=26;horizontalStack=0;resizeParent=1;resizeParentMax=0;resizeLast=0;collapsible=1;marginBottom=0;" parent="1" vertex="1">
          <mxGeometry x="740" y="1980" width="90" height="78" as="geometry" />
        </mxCell>
        <mxCell id="wFwmpMXxDF0CLSWa99Yn-18" value="Open()" style="text;strokeColor=none;fillColor=none;align=left;verticalAlign=top;spacingLeft=4;spacingRight=4;overflow=hidden;rotatable=0;points=[[0,0.5],[1,0.5]];portConstraint=eastwest;" parent="wFwmpMXxDF0CLSWa99Yn-17" vertex="1">
          <mxGeometry y="26" width="90" height="26" as="geometry" />
        </mxCell>
        <mxCell id="wFwmpMXxDF0CLSWa99Yn-19" value="Close()" style="text;strokeColor=none;fillColor=none;align=left;verticalAlign=top;spacingLeft=4;spacingRight=4;overflow=hidden;rotatable=0;points=[[0,0.5],[1,0.5]];portConstraint=eastwest;" parent="wFwmpMXxDF0CLSWa99Yn-17" vertex="1">
          <mxGeometry y="52" width="90" height="26" as="geometry" />
        </mxCell>
        <mxCell id="wFwmpMXxDF0CLSWa99Yn-20" value="" style="endArrow=diamondThin;endFill=0;endSize=24;html=1;" parent="1" source="wFwmpMXxDF0CLSWa99Yn-17" target="wFwmpMXxDF0CLSWa99Yn-2" edge="1">
          <mxGeometry width="160" relative="1" as="geometry">
            <mxPoint x="890" y="1820" as="sourcePoint" />
            <mxPoint x="1050" y="1820" as="targetPoint" />
          </mxGeometry>
        </mxCell>
        <mxCell id="BoS02DbmtjST0QqdQiZQ-1" value="&lt;i&gt;&amp;lt;&amp;lt;interface&amp;gt;&amp;gt;&lt;br&gt;IPersonObserver&lt;/i&gt;" style="swimlane;fontStyle=1;align=center;verticalAlign=top;childLayout=stackLayout;horizontal=1;startSize=40;horizontalStack=0;resizeParent=1;resizeParentMax=0;resizeLast=0;collapsible=1;marginBottom=0;whiteSpace=wrap;html=1;fillColor=#d5e8d4;strokeColor=#82b366;" parent="1" vertex="1">
          <mxGeometry x="550" y="1646" width="180" height="92" as="geometry" />
        </mxCell>
        <mxCell id="BoS02DbmtjST0QqdQiZQ-2" value="OnWakeUp(person:Person&amp;amp;)" style="text;strokeColor=none;fillColor=none;align=left;verticalAlign=top;spacingLeft=4;spacingRight=4;overflow=hidden;rotatable=0;points=[[0,0.5],[1,0.5]];portConstraint=eastwest;whiteSpace=wrap;html=1;fontStyle=2" parent="BoS02DbmtjST0QqdQiZQ-1" vertex="1">
          <mxGeometry y="40" width="180" height="26" as="geometry" />
        </mxCell>
        <mxCell id="BoS02DbmtjST0QqdQiZQ-4" value="OnSleep(person:Person&amp;amp;)" style="text;strokeColor=none;fillColor=none;align=left;verticalAlign=top;spacingLeft=4;spacingRight=4;overflow=hidden;rotatable=0;points=[[0,0.5],[1,0.5]];portConstraint=eastwest;whiteSpace=wrap;html=1;fontStyle=2" parent="BoS02DbmtjST0QqdQiZQ-1" vertex="1">
          <mxGeometry y="66" width="180" height="26" as="geometry" />
        </mxCell>
        <mxCell id="BoS02DbmtjST0QqdQiZQ-8" value="" style="endArrow=diamondThin;endFill=0;endSize=24;html=1;rounded=0;" parent="1" source="BoS02DbmtjST0QqdQiZQ-1" target="wFwmpMXxDF0CLSWa99Yn-4" edge="1">
          <mxGeometry width="160" relative="1" as="geometry">
            <mxPoint x="520" y="1820" as="sourcePoint" />
            <mxPoint x="680" y="1820" as="targetPoint" />
          </mxGeometry>
        </mxCell>
        <mxCell id="BoS02DbmtjST0QqdQiZQ-12" value="" style="endArrow=block;dashed=1;endFill=0;endSize=12;html=1;rounded=0;" parent="1" source="wFwmpMXxDF0CLSWa99Yn-2" target="BoS02DbmtjST0QqdQiZQ-1" edge="1">
          <mxGeometry width="160" relative="1" as="geometry">
            <mxPoint x="510" y="1800" as="sourcePoint" />
            <mxPoint x="670" y="1800" as="targetPoint" />
          </mxGeometry>
        </mxCell>
        <mxCell id="BoS02DbmtjST0QqdQiZQ-13" value="&lt;div style=&quot;text-align: left&quot;&gt;&lt;span&gt;&lt;font face=&quot;Lucida Console&quot;&gt;void Sleep()&amp;nbsp;&lt;/font&gt;&lt;/span&gt;&lt;span style=&quot;font-family: &amp;quot;Lucida Console&amp;quot;;&quot;&gt;{&lt;/span&gt;&lt;/div&gt;&lt;div style=&quot;text-align: left&quot;&gt;&lt;div&gt;&lt;font face=&quot;Lucida Console&quot;&gt;&amp;nbsp; m_sleeping = true;&lt;/font&gt;&lt;/div&gt;&lt;div&gt;&lt;font face=&quot;Lucida Console&quot;&gt;&amp;nbsp; for (auto&amp;amp; o: m_observers)&lt;/font&gt;&lt;/div&gt;&lt;div&gt;&lt;font face=&quot;Lucida Console&quot;&gt;&amp;nbsp; &amp;nbsp; o-&amp;gt;OnSleep(&lt;b&gt;*this&lt;/b&gt;);&lt;/font&gt;&lt;/div&gt;&lt;/div&gt;&lt;div style=&quot;text-align: left&quot;&gt;&lt;span&gt;&lt;font face=&quot;Lucida Console&quot;&gt;}&lt;/font&gt;&lt;/span&gt;&lt;/div&gt;&lt;div style=&quot;text-align: left&quot;&gt;&lt;br&gt;&lt;/div&gt;&lt;div style=&quot;text-align: left&quot;&gt;&lt;font face=&quot;Lucida Console&quot;&gt;void WakeUp()&amp;nbsp;&lt;/font&gt;&lt;span style=&quot;font-family: &amp;quot;Lucida Console&amp;quot;;&quot;&gt;{&lt;/span&gt;&lt;/div&gt;&lt;div style=&quot;text-align: left&quot;&gt;&lt;div&gt;&lt;font face=&quot;Lucida Console&quot;&gt;&amp;nbsp; m_speeping = false;&lt;/font&gt;&lt;/div&gt;&lt;div&gt;&lt;font face=&quot;Lucida Console&quot;&gt;&amp;nbsp; for (auto&amp;amp; o: m_observers)&lt;/font&gt;&lt;/div&gt;&lt;div&gt;&lt;font face=&quot;Lucida Console&quot;&gt;&amp;nbsp; &amp;nbsp; o-&amp;gt;OnWakeUp(&lt;b&gt;*this&lt;/b&gt;);&lt;/font&gt;&lt;/div&gt;&lt;/div&gt;&lt;div style=&quot;text-align: left&quot;&gt;&lt;span&gt;&lt;font face=&quot;Lucida Console&quot;&gt;}&lt;/font&gt;&lt;/span&gt;&lt;/div&gt;" style="shape=note;whiteSpace=wrap;html=1;backgroundOutline=1;darkOpacity=0.05;size=16;fillColor=#fff2cc;gradientColor=#ffd966;strokeColor=#d6b656;" parent="1" vertex="1">
          <mxGeometry x="1106" y="1710" width="224" height="190" as="geometry" />
        </mxCell>
      </root>
    </mxGraphModel>
  </diagram>
</mxfile>
